<svg id="Layer_1" data-name="Layer 1" xmlns="http://www.w3.org/2000/svg" viewBox="0 0 261.06 102.96"><defs><style>.cls-1,.cls-2{fill:#f7ce06;}.cls-1{opacity:0.6;}.cls-2{opacity:0.7;}</style></defs><title>fitU_logo</title><rect class="cls-1" x="158.09" y="31.28" width="9.08" height="36.53" rx="4.15" ry="4.15" transform="translate(113.09 212.17) rotate(-90)"/><circle class="cls-2" cx="224.05" cy="61.88" r="10.73"/><rect class="cls-2" x="193.58" y="15.58" width="10.08" height="56.61" rx="4.15" ry="4.15"/><rect class="cls-2" x="243.22" y="15.37" width="10.48" height="56.61" rx="4.15" ry="4.15"/><path class="cls-2" d="M243.44,67.24c1.1-5.51,8.65-7.48,10,.73,1.3,8-9.1,30.41-29.84,29.84-16.47-.45-29.84-13.36-29.84-29.84,0-8,10.94-6.12,10.29-2.5C200.82,83.41,236.09,104,243.44,67.24Z"/><rect class="cls-2" x="103.85" y="14.86" width="8.43" height="81.34" rx="4.15" ry="4.15"/><rect class="cls-2" x="68.69" y="45.71" width="9.08" height="52.37" rx="4.15" ry="4.15"/><rect class="cls-1" x="103.52" y="25.55" width="9.08" height="47.86" rx="4.15" ry="4.15" transform="translate(58.58 157.54) rotate(-90)"/><rect class="cls-2" x="26.74" y="24.79" width="8.83" height="71.15" rx="4.15" ry="4.15"/><rect class="cls-2" x="26.61" y="23.29" width="9.08" height="52.37" rx="4.15" ry="4.15" transform="translate(-18.33 80.63) rotate(-90)"/><path class="cls-2" d="M35.74,29.14c-.86,4.79-7.37,6.62-8.67-.48-1.42-7.75,6.65-26.5,25.38-26.34,14.28.13,26.07,11.1,26.34,25.38.12,6.94-9.39,5.49-8.88,2.33C72.42,14.44,41.52-2.83,35.74,29.14Z"/></svg>