<?xml version="1.0" encoding="utf-8"?>
<!-- Generator: Adobe Illustrator 22.0.1, SVG Export Plug-In . SVG Version: 6.00 Build 0)  -->
<svg version="1.1" id="Layer_1" xmlns="http://www.w3.org/2000/svg" xmlns:xlink="http://www.w3.org/1999/xlink" x="0px" y="0px"
	 viewBox="0 0 102 40" style="enable-background:new 0 0 102 40;" xml:space="preserve">
<style type="text/css">
	.st0{opacity:0.6;fill:#F7CE06;enable-background:new    ;}
	.st1{opacity:0.7;fill:#F7CE06;enable-background:new    ;}
</style>
<g>
	<title>fitU_logo</title>
	<path class="st0" d="M55.7,20.2L55.7,20.2c0-1,0.8-1.8,1.8-1.8h10.6c1,0,1.8,0.8,1.8,1.8l0,0c0,1-0.8,1.8-1.8,1.8H57.4
		C56.5,21.9,55.7,21.1,55.7,20.2z"/>
	<circle class="st1" cx="86.6" cy="24.9" r="4.2"/>
	<path class="st1" d="M76.7,7L76.7,7c1.1,0,2,0.9,2,1.9v18c0,1.1-0.9,2-1.9,2h0c-1.1,0-1.9-0.9-1.9-2v-18C74.8,7.9,75.6,7,76.7,7z"
		/>
	<path class="st1" d="M96,6.9L96,6.9c1.1,0,2,0.9,2,2v17.9c0,1.1-0.9,2-2,2l0,0c-1.1,0-2-0.9-2-2V8.9C94,7.8,94.9,6.9,96,6.9z"/>
	<path class="st1" d="M94.1,27c0.4-2.1,3.3-2.9,3.9,0.3s-3.5,11.8-11.6,11.6c-6.4-0.1-11.5-5.2-11.6-11.6c0-3.1,4.2-2.4,4-1
		C77.6,33.3,91.2,41.2,94.1,27z"/>
	<path class="st1" d="M41.6,6.7L41.6,6.7c0.9,0,1.6,0.7,1.6,1.6v28.2c0,0.9-0.7,1.6-1.6,1.6h0c-0.9,0-1.6-0.7-1.6-1.6V8.3
		C40,7.4,40.7,6.7,41.6,6.7z"/>
	<path class="st1" d="M28.1,18.7L28.1,18.7c1,0,1.8,0.8,1.8,1.8v16.8c0,1-0.8,1.8-1.8,1.8l0,0c-1,0-1.8-0.8-1.8-1.8V20.4
		C26.4,19.5,27.2,18.7,28.1,18.7z"/>
	<path class="st0" d="M32.3,20.1L32.3,20.1c0-1,0.8-1.8,1.8-1.8h15c1,0,1.8,0.8,1.8,1.8v0c0,1-0.8,1.8-1.8,1.8h-15
		C33.1,21.9,32.3,21.1,32.3,20.1z"/>
	<path class="st1" d="M11.8,10.6L11.8,10.6c0.9,0,1.7,0.8,1.7,1.7v24.2c0,0.9-0.8,1.7-1.7,1.7l0,0c-0.9,0-1.7-0.8-1.7-1.7V12.3
		C10.1,11.3,10.9,10.6,11.8,10.6z"/>
	<path class="st1" d="M1.7,20.1L1.7,20.1c0-1,0.8-1.8,1.8-1.8h16.8c1,0,1.8,0.8,1.8,1.8l0,0c0,1-0.8,1.8-1.8,1.8H3.4
		C2.5,21.9,1.7,21.1,1.7,20.1z"/>
	<path class="st1" d="M13.6,12.2c-0.3,1.9-2.9,2.6-3.4-0.2c-0.6-3,2.6-10.3,9.8-10.2c5.5,0,10,4.3,10.2,9.8c0,2.7-3.6,2.1-3.4,0.9
		C27.8,6.6,15.8-0.1,13.6,12.2z"/>
</g>
</svg>
